<mxfile host="Electron" agent="Mozilla/5.0 (Windows NT 10.0; Win64; x64) AppleWebKit/537.36 (KHTML, like Gecko) draw.io/26.0.16 Chrome/132.0.6834.196 Electron/34.2.0 Safari/537.36" version="26.0.16">
  <diagram id="C5RBs43oDa-KdzZeNtuy" name="CommandsAndStatuses">
    <mxGraphModel dx="1640" dy="418" grid="1" gridSize="10" guides="1" tooltips="1" connect="1" arrows="1" fold="1" page="0" pageScale="1" pageWidth="827" pageHeight="1169" math="0" shadow="0">
      <root>
        <mxCell id="WIyWlLk6GJQsqaUBKTNV-0" />
        <mxCell id="WIyWlLk6GJQsqaUBKTNV-1" parent="WIyWlLk6GJQsqaUBKTNV-0" />
        <mxCell id="XcSWrW2zdejVUgtWruym-0" value="&lt;&lt;interface&gt;&gt;&#xa;TaskOperation" style="swimlane;fontStyle=1;align=center;verticalAlign=top;childLayout=stackLayout;horizontal=1;startSize=71;horizontalStack=0;resizeParent=1;resizeParentMax=0;resizeLast=0;collapsible=0;marginBottom=0;" parent="WIyWlLk6GJQsqaUBKTNV-1" vertex="1">
          <mxGeometry x="1322" y="1194" width="282" height="126" as="geometry" />
        </mxCell>
        <mxCell id="XcSWrW2zdejVUgtWruym-1" style="line;strokeWidth=1;fillColor=none;align=left;verticalAlign=middle;spacingTop=-1;spacingLeft=3;spacingRight=3;rotatable=0;labelPosition=right;points=[];portConstraint=eastwest;strokeColor=inherit;" parent="XcSWrW2zdejVUgtWruym-0" vertex="1">
          <mxGeometry y="71" width="282" height="8" as="geometry" />
        </mxCell>
        <mxCell id="XcSWrW2zdejVUgtWruym-2" value="+execute() : throws Exception" style="text;strokeColor=none;fillColor=none;align=left;verticalAlign=top;spacingLeft=4;spacingRight=4;overflow=hidden;rotatable=0;points=[[0,0.5],[1,0.5]];portConstraint=eastwest;" parent="XcSWrW2zdejVUgtWruym-0" vertex="1">
          <mxGeometry y="79" width="282" height="47" as="geometry" />
        </mxCell>
        <mxCell id="XcSWrW2zdejVUgtWruym-3" value="&lt;&lt;enumeration&gt;&gt;&#xa;TaskCommand" style="swimlane;fontStyle=1;align=center;verticalAlign=top;childLayout=stackLayout;horizontal=1;startSize=51.2;horizontalStack=0;resizeParent=1;resizeParentMax=0;resizeLast=0;collapsible=0;marginBottom=0;" parent="WIyWlLk6GJQsqaUBKTNV-1" vertex="1">
          <mxGeometry x="530" y="1920" width="212" height="263.2" as="geometry" />
        </mxCell>
        <mxCell id="XcSWrW2zdejVUgtWruym-4" value="ADD" style="text;strokeColor=none;fillColor=none;align=left;verticalAlign=top;spacingLeft=4;spacingRight=4;overflow=hidden;rotatable=0;points=[[0,0.5],[1,0.5]];portConstraint=eastwest;" parent="XcSWrW2zdejVUgtWruym-3" vertex="1">
          <mxGeometry y="51.2" width="212" height="34" as="geometry" />
        </mxCell>
        <mxCell id="XcSWrW2zdejVUgtWruym-5" value="UPDATE" style="text;strokeColor=none;fillColor=none;align=left;verticalAlign=top;spacingLeft=4;spacingRight=4;overflow=hidden;rotatable=0;points=[[0,0.5],[1,0.5]];portConstraint=eastwest;" parent="XcSWrW2zdejVUgtWruym-3" vertex="1">
          <mxGeometry y="85.2" width="212" height="34" as="geometry" />
        </mxCell>
        <mxCell id="XcSWrW2zdejVUgtWruym-6" value="DELETE" style="text;strokeColor=none;fillColor=none;align=left;verticalAlign=top;spacingLeft=4;spacingRight=4;overflow=hidden;rotatable=0;points=[[0,0.5],[1,0.5]];portConstraint=eastwest;" parent="XcSWrW2zdejVUgtWruym-3" vertex="1">
          <mxGeometry y="119.2" width="212" height="34" as="geometry" />
        </mxCell>
        <mxCell id="XcSWrW2zdejVUgtWruym-7" value="LIST" style="text;strokeColor=none;fillColor=none;align=left;verticalAlign=top;spacingLeft=4;spacingRight=4;overflow=hidden;rotatable=0;points=[[0,0.5],[1,0.5]];portConstraint=eastwest;" parent="XcSWrW2zdejVUgtWruym-3" vertex="1">
          <mxGeometry y="153.2" width="212" height="34" as="geometry" />
        </mxCell>
        <mxCell id="XcSWrW2zdejVUgtWruym-8" value="CHANGE_STATUS" style="text;strokeColor=none;fillColor=none;align=left;verticalAlign=top;spacingLeft=4;spacingRight=4;overflow=hidden;rotatable=0;points=[[0,0.5],[1,0.5]];portConstraint=eastwest;" parent="XcSWrW2zdejVUgtWruym-3" vertex="1">
          <mxGeometry y="187.2" width="212" height="34" as="geometry" />
        </mxCell>
        <mxCell id="XcSWrW2zdejVUgtWruym-9" style="line;strokeWidth=1;fillColor=none;align=left;verticalAlign=middle;spacingTop=-1;spacingLeft=3;spacingRight=3;rotatable=0;labelPosition=right;points=[];portConstraint=eastwest;strokeColor=inherit;" parent="XcSWrW2zdejVUgtWruym-3" vertex="1">
          <mxGeometry y="221.2" width="212" height="8" as="geometry" />
        </mxCell>
        <mxCell id="XcSWrW2zdejVUgtWruym-10" value="+toString() : String" style="text;strokeColor=none;fillColor=none;align=left;verticalAlign=top;spacingLeft=4;spacingRight=4;overflow=hidden;rotatable=0;points=[[0,0.5],[1,0.5]];portConstraint=eastwest;" parent="XcSWrW2zdejVUgtWruym-3" vertex="1">
          <mxGeometry y="229.2" width="212" height="34" as="geometry" />
        </mxCell>
        <mxCell id="XcSWrW2zdejVUgtWruym-11" value="&lt;&lt;enumeration&gt;&gt;&#xa;TaskStatus" style="swimlane;fontStyle=1;align=center;verticalAlign=top;childLayout=stackLayout;horizontal=1;startSize=61.33333333333333;horizontalStack=0;resizeParent=1;resizeParentMax=0;resizeLast=0;collapsible=0;marginBottom=0;" parent="WIyWlLk6GJQsqaUBKTNV-1" vertex="1">
          <mxGeometry x="1528.5" y="2630" width="212" height="192.33333333333331" as="geometry" />
        </mxCell>
        <mxCell id="XcSWrW2zdejVUgtWruym-12" value="IN_PROGRESS" style="text;strokeColor=none;fillColor=none;align=left;verticalAlign=top;spacingLeft=4;spacingRight=4;overflow=hidden;rotatable=0;points=[[0,0.5],[1,0.5]];portConstraint=eastwest;" parent="XcSWrW2zdejVUgtWruym-11" vertex="1">
          <mxGeometry y="61.33333333333333" width="212" height="41" as="geometry" />
        </mxCell>
        <mxCell id="XcSWrW2zdejVUgtWruym-13" value="DONE" style="text;strokeColor=none;fillColor=none;align=left;verticalAlign=top;spacingLeft=4;spacingRight=4;overflow=hidden;rotatable=0;points=[[0,0.5],[1,0.5]];portConstraint=eastwest;" parent="XcSWrW2zdejVUgtWruym-11" vertex="1">
          <mxGeometry y="102.33333333333333" width="212" height="41" as="geometry" />
        </mxCell>
        <mxCell id="XcSWrW2zdejVUgtWruym-14" style="line;strokeWidth=1;fillColor=none;align=left;verticalAlign=middle;spacingTop=-1;spacingLeft=3;spacingRight=3;rotatable=0;labelPosition=right;points=[];portConstraint=eastwest;strokeColor=inherit;" parent="XcSWrW2zdejVUgtWruym-11" vertex="1">
          <mxGeometry y="143.33333333333331" width="212" height="8" as="geometry" />
        </mxCell>
        <mxCell id="XcSWrW2zdejVUgtWruym-15" value="+toString() : String" style="text;strokeColor=none;fillColor=none;align=left;verticalAlign=top;spacingLeft=4;spacingRight=4;overflow=hidden;rotatable=0;points=[[0,0.5],[1,0.5]];portConstraint=eastwest;" parent="XcSWrW2zdejVUgtWruym-11" vertex="1">
          <mxGeometry y="151.33333333333331" width="212" height="41" as="geometry" />
        </mxCell>
        <mxCell id="XcSWrW2zdejVUgtWruym-16" value="Task" style="swimlane;fontStyle=1;align=center;verticalAlign=top;childLayout=stackLayout;horizontal=1;startSize=27.764705882352942;horizontalStack=0;resizeParent=1;resizeParentMax=0;resizeLast=0;collapsible=0;marginBottom=0;" parent="WIyWlLk6GJQsqaUBKTNV-1" vertex="1">
          <mxGeometry x="1440" y="2010" width="389" height="483.7647058823529" as="geometry" />
        </mxCell>
        <mxCell id="XcSWrW2zdejVUgtWruym-17" value="-Integer id" style="text;strokeColor=none;fillColor=none;align=left;verticalAlign=top;spacingLeft=4;spacingRight=4;overflow=hidden;rotatable=0;points=[[0,0.5],[1,0.5]];portConstraint=eastwest;" parent="XcSWrW2zdejVUgtWruym-16" vertex="1">
          <mxGeometry y="27.764705882352942" width="389" height="28" as="geometry" />
        </mxCell>
        <mxCell id="XcSWrW2zdejVUgtWruym-18" value="-String description" style="text;strokeColor=none;fillColor=none;align=left;verticalAlign=top;spacingLeft=4;spacingRight=4;overflow=hidden;rotatable=0;points=[[0,0.5],[1,0.5]];portConstraint=eastwest;" parent="XcSWrW2zdejVUgtWruym-16" vertex="1">
          <mxGeometry y="55.76470588235294" width="389" height="28" as="geometry" />
        </mxCell>
        <mxCell id="XcSWrW2zdejVUgtWruym-19" value="-TaskStatus status" style="text;strokeColor=none;fillColor=none;align=left;verticalAlign=top;spacingLeft=4;spacingRight=4;overflow=hidden;rotatable=0;points=[[0,0.5],[1,0.5]];portConstraint=eastwest;" parent="XcSWrW2zdejVUgtWruym-16" vertex="1">
          <mxGeometry y="83.76470588235294" width="389" height="28" as="geometry" />
        </mxCell>
        <mxCell id="XcSWrW2zdejVUgtWruym-20" value="-LocalDateTime createdAt" style="text;strokeColor=none;fillColor=none;align=left;verticalAlign=top;spacingLeft=4;spacingRight=4;overflow=hidden;rotatable=0;points=[[0,0.5],[1,0.5]];portConstraint=eastwest;" parent="XcSWrW2zdejVUgtWruym-16" vertex="1">
          <mxGeometry y="111.76470588235294" width="389" height="28" as="geometry" />
        </mxCell>
        <mxCell id="XcSWrW2zdejVUgtWruym-21" value="-LocalDateTime updatedAt" style="text;strokeColor=none;fillColor=none;align=left;verticalAlign=top;spacingLeft=4;spacingRight=4;overflow=hidden;rotatable=0;points=[[0,0.5],[1,0.5]];portConstraint=eastwest;" parent="XcSWrW2zdejVUgtWruym-16" vertex="1">
          <mxGeometry y="139.76470588235293" width="389" height="28" as="geometry" />
        </mxCell>
        <mxCell id="XcSWrW2zdejVUgtWruym-22" style="line;strokeWidth=1;fillColor=none;align=left;verticalAlign=middle;spacingTop=-1;spacingLeft=3;spacingRight=3;rotatable=0;labelPosition=right;points=[];portConstraint=eastwest;strokeColor=inherit;" parent="XcSWrW2zdejVUgtWruym-16" vertex="1">
          <mxGeometry y="167.76470588235293" width="389" height="8" as="geometry" />
        </mxCell>
        <mxCell id="XcSWrW2zdejVUgtWruym-23" value="+Task(String description, TaskStatus status)" style="text;strokeColor=none;fillColor=none;align=left;verticalAlign=top;spacingLeft=4;spacingRight=4;overflow=hidden;rotatable=0;points=[[0,0.5],[1,0.5]];portConstraint=eastwest;" parent="XcSWrW2zdejVUgtWruym-16" vertex="1">
          <mxGeometry y="175.76470588235293" width="389" height="28" as="geometry" />
        </mxCell>
        <mxCell id="XcSWrW2zdejVUgtWruym-24" value="+getId() : Integer" style="text;strokeColor=none;fillColor=none;align=left;verticalAlign=top;spacingLeft=4;spacingRight=4;overflow=hidden;rotatable=0;points=[[0,0.5],[1,0.5]];portConstraint=eastwest;" parent="XcSWrW2zdejVUgtWruym-16" vertex="1">
          <mxGeometry y="203.76470588235293" width="389" height="28" as="geometry" />
        </mxCell>
        <mxCell id="XcSWrW2zdejVUgtWruym-25" value="+setId(Integer id) : void" style="text;strokeColor=none;fillColor=none;align=left;verticalAlign=top;spacingLeft=4;spacingRight=4;overflow=hidden;rotatable=0;points=[[0,0.5],[1,0.5]];portConstraint=eastwest;" parent="XcSWrW2zdejVUgtWruym-16" vertex="1">
          <mxGeometry y="231.76470588235293" width="389" height="28" as="geometry" />
        </mxCell>
        <mxCell id="XcSWrW2zdejVUgtWruym-26" value="+getDescription() : String" style="text;strokeColor=none;fillColor=none;align=left;verticalAlign=top;spacingLeft=4;spacingRight=4;overflow=hidden;rotatable=0;points=[[0,0.5],[1,0.5]];portConstraint=eastwest;" parent="XcSWrW2zdejVUgtWruym-16" vertex="1">
          <mxGeometry y="259.7647058823529" width="389" height="28" as="geometry" />
        </mxCell>
        <mxCell id="XcSWrW2zdejVUgtWruym-27" value="+setDescription(String description) : void" style="text;strokeColor=none;fillColor=none;align=left;verticalAlign=top;spacingLeft=4;spacingRight=4;overflow=hidden;rotatable=0;points=[[0,0.5],[1,0.5]];portConstraint=eastwest;" parent="XcSWrW2zdejVUgtWruym-16" vertex="1">
          <mxGeometry y="287.7647058823529" width="389" height="28" as="geometry" />
        </mxCell>
        <mxCell id="XcSWrW2zdejVUgtWruym-28" value="+getStatus() : TaskStatus" style="text;strokeColor=none;fillColor=none;align=left;verticalAlign=top;spacingLeft=4;spacingRight=4;overflow=hidden;rotatable=0;points=[[0,0.5],[1,0.5]];portConstraint=eastwest;" parent="XcSWrW2zdejVUgtWruym-16" vertex="1">
          <mxGeometry y="315.7647058823529" width="389" height="28" as="geometry" />
        </mxCell>
        <mxCell id="XcSWrW2zdejVUgtWruym-29" value="+setStatus(TaskStatus status) : void" style="text;strokeColor=none;fillColor=none;align=left;verticalAlign=top;spacingLeft=4;spacingRight=4;overflow=hidden;rotatable=0;points=[[0,0.5],[1,0.5]];portConstraint=eastwest;" parent="XcSWrW2zdejVUgtWruym-16" vertex="1">
          <mxGeometry y="343.7647058823529" width="389" height="28" as="geometry" />
        </mxCell>
        <mxCell id="XcSWrW2zdejVUgtWruym-30" value="+getCreatedAt() : LocalDateTime" style="text;strokeColor=none;fillColor=none;align=left;verticalAlign=top;spacingLeft=4;spacingRight=4;overflow=hidden;rotatable=0;points=[[0,0.5],[1,0.5]];portConstraint=eastwest;" parent="XcSWrW2zdejVUgtWruym-16" vertex="1">
          <mxGeometry y="371.7647058823529" width="389" height="28" as="geometry" />
        </mxCell>
        <mxCell id="XcSWrW2zdejVUgtWruym-31" value="+setCreatedAt(LocalDateTime createdAt) : void" style="text;strokeColor=none;fillColor=none;align=left;verticalAlign=top;spacingLeft=4;spacingRight=4;overflow=hidden;rotatable=0;points=[[0,0.5],[1,0.5]];portConstraint=eastwest;" parent="XcSWrW2zdejVUgtWruym-16" vertex="1">
          <mxGeometry y="399.7647058823529" width="389" height="28" as="geometry" />
        </mxCell>
        <mxCell id="XcSWrW2zdejVUgtWruym-32" value="+getUpdatedAt() : LocalDateTime" style="text;strokeColor=none;fillColor=none;align=left;verticalAlign=top;spacingLeft=4;spacingRight=4;overflow=hidden;rotatable=0;points=[[0,0.5],[1,0.5]];portConstraint=eastwest;" parent="XcSWrW2zdejVUgtWruym-16" vertex="1">
          <mxGeometry y="427.7647058823529" width="389" height="28" as="geometry" />
        </mxCell>
        <mxCell id="XcSWrW2zdejVUgtWruym-33" value="+setUpdatedAt(LocalDateTime updatedAt) : void" style="text;strokeColor=none;fillColor=none;align=left;verticalAlign=top;spacingLeft=4;spacingRight=4;overflow=hidden;rotatable=0;points=[[0,0.5],[1,0.5]];portConstraint=eastwest;" parent="XcSWrW2zdejVUgtWruym-16" vertex="1">
          <mxGeometry y="455.7647058823529" width="389" height="28" as="geometry" />
        </mxCell>
        <mxCell id="XcSWrW2zdejVUgtWruym-34" value="TaskDAO" style="swimlane;fontStyle=1;align=center;verticalAlign=top;childLayout=stackLayout;horizontal=1;startSize=32;horizontalStack=0;resizeParent=1;resizeParentMax=0;resizeLast=0;collapsible=0;marginBottom=0;" parent="WIyWlLk6GJQsqaUBKTNV-1" vertex="1">
          <mxGeometry x="2470" y="2180" width="344" height="264" as="geometry" />
        </mxCell>
        <mxCell id="XcSWrW2zdejVUgtWruym-35" value="-HikariDataSource dataSource" style="text;strokeColor=none;fillColor=none;align=left;verticalAlign=top;spacingLeft=4;spacingRight=4;overflow=hidden;rotatable=0;points=[[0,0.5],[1,0.5]];portConstraint=eastwest;" parent="XcSWrW2zdejVUgtWruym-34" vertex="1">
          <mxGeometry y="32" width="344" height="32" as="geometry" />
        </mxCell>
        <mxCell id="XcSWrW2zdejVUgtWruym-36" style="line;strokeWidth=1;fillColor=none;align=left;verticalAlign=middle;spacingTop=-1;spacingLeft=3;spacingRight=3;rotatable=0;labelPosition=right;points=[];portConstraint=eastwest;strokeColor=inherit;" parent="XcSWrW2zdejVUgtWruym-34" vertex="1">
          <mxGeometry y="64" width="344" height="8" as="geometry" />
        </mxCell>
        <mxCell id="XcSWrW2zdejVUgtWruym-37" value="+TaskDAO(HikariDataSource dataSource)" style="text;strokeColor=none;fillColor=none;align=left;verticalAlign=top;spacingLeft=4;spacingRight=4;overflow=hidden;rotatable=0;points=[[0,0.5],[1,0.5]];portConstraint=eastwest;" parent="XcSWrW2zdejVUgtWruym-34" vertex="1">
          <mxGeometry y="72" width="344" height="32" as="geometry" />
        </mxCell>
        <mxCell id="XcSWrW2zdejVUgtWruym-38" value="+createTask(Task task) : Task" style="text;strokeColor=none;fillColor=none;align=left;verticalAlign=top;spacingLeft=4;spacingRight=4;overflow=hidden;rotatable=0;points=[[0,0.5],[1,0.5]];portConstraint=eastwest;" parent="XcSWrW2zdejVUgtWruym-34" vertex="1">
          <mxGeometry y="104" width="344" height="32" as="geometry" />
        </mxCell>
        <mxCell id="XcSWrW2zdejVUgtWruym-39" value="+getTaskById(int id) : Task" style="text;strokeColor=none;fillColor=none;align=left;verticalAlign=top;spacingLeft=4;spacingRight=4;overflow=hidden;rotatable=0;points=[[0,0.5],[1,0.5]];portConstraint=eastwest;" parent="XcSWrW2zdejVUgtWruym-34" vertex="1">
          <mxGeometry y="136" width="344" height="32" as="geometry" />
        </mxCell>
        <mxCell id="XcSWrW2zdejVUgtWruym-40" value="+getAllTasks() : List&lt;Task&gt;" style="text;strokeColor=none;fillColor=none;align=left;verticalAlign=top;spacingLeft=4;spacingRight=4;overflow=hidden;rotatable=0;points=[[0,0.5],[1,0.5]];portConstraint=eastwest;" parent="XcSWrW2zdejVUgtWruym-34" vertex="1">
          <mxGeometry y="168" width="344" height="32" as="geometry" />
        </mxCell>
        <mxCell id="XcSWrW2zdejVUgtWruym-41" value="+updateTask(Task task) : void" style="text;strokeColor=none;fillColor=none;align=left;verticalAlign=top;spacingLeft=4;spacingRight=4;overflow=hidden;rotatable=0;points=[[0,0.5],[1,0.5]];portConstraint=eastwest;" parent="XcSWrW2zdejVUgtWruym-34" vertex="1">
          <mxGeometry y="200" width="344" height="32" as="geometry" />
        </mxCell>
        <mxCell id="XcSWrW2zdejVUgtWruym-42" value="+deleteTask(int id) : void" style="text;strokeColor=none;fillColor=none;align=left;verticalAlign=top;spacingLeft=4;spacingRight=4;overflow=hidden;rotatable=0;points=[[0,0.5],[1,0.5]];portConstraint=eastwest;" parent="XcSWrW2zdejVUgtWruym-34" vertex="1">
          <mxGeometry y="232" width="344" height="32" as="geometry" />
        </mxCell>
        <mxCell id="XcSWrW2zdejVUgtWruym-43" value="CommandFactory" style="swimlane;fontStyle=1;align=center;verticalAlign=top;childLayout=stackLayout;horizontal=1;startSize=32;horizontalStack=0;resizeParent=1;resizeParentMax=0;resizeLast=0;collapsible=0;marginBottom=0;" parent="WIyWlLk6GJQsqaUBKTNV-1" vertex="1">
          <mxGeometry x="2610" y="890" width="493" height="264" as="geometry" />
        </mxCell>
        <mxCell id="XcSWrW2zdejVUgtWruym-44" value="-TaskDAO taskDAO" style="text;strokeColor=none;fillColor=none;align=left;verticalAlign=top;spacingLeft=4;spacingRight=4;overflow=hidden;rotatable=0;points=[[0,0.5],[1,0.5]];portConstraint=eastwest;" parent="XcSWrW2zdejVUgtWruym-43" vertex="1">
          <mxGeometry y="32" width="493" height="32" as="geometry" />
        </mxCell>
        <mxCell id="XcSWrW2zdejVUgtWruym-45" style="line;strokeWidth=1;fillColor=none;align=left;verticalAlign=middle;spacingTop=-1;spacingLeft=3;spacingRight=3;rotatable=0;labelPosition=right;points=[];portConstraint=eastwest;strokeColor=inherit;" parent="XcSWrW2zdejVUgtWruym-43" vertex="1">
          <mxGeometry y="64" width="493" height="8" as="geometry" />
        </mxCell>
        <mxCell id="XcSWrW2zdejVUgtWruym-46" value="+CommandFactory(TaskDAO taskDAO)" style="text;strokeColor=none;fillColor=none;align=left;verticalAlign=top;spacingLeft=4;spacingRight=4;overflow=hidden;rotatable=0;points=[[0,0.5],[1,0.5]];portConstraint=eastwest;" parent="XcSWrW2zdejVUgtWruym-43" vertex="1">
          <mxGeometry y="72" width="493" height="32" as="geometry" />
        </mxCell>
        <mxCell id="XcSWrW2zdejVUgtWruym-47" value="+createCommand(String[] args) : Command" style="text;strokeColor=none;fillColor=none;align=left;verticalAlign=top;spacingLeft=4;spacingRight=4;overflow=hidden;rotatable=0;points=[[0,0.5],[1,0.5]];portConstraint=eastwest;" parent="XcSWrW2zdejVUgtWruym-43" vertex="1">
          <mxGeometry y="104" width="493" height="32" as="geometry" />
        </mxCell>
        <mxCell id="XcSWrW2zdejVUgtWruym-48" value="-createAddCommand(String[] args) : Command" style="text;strokeColor=none;fillColor=none;align=left;verticalAlign=top;spacingLeft=4;spacingRight=4;overflow=hidden;rotatable=0;points=[[0,0.5],[1,0.5]];portConstraint=eastwest;" parent="XcSWrW2zdejVUgtWruym-43" vertex="1">
          <mxGeometry y="136" width="493" height="32" as="geometry" />
        </mxCell>
        <mxCell id="XcSWrW2zdejVUgtWruym-49" value="-createUpdateCommand(String[] args) : Command" style="text;strokeColor=none;fillColor=none;align=left;verticalAlign=top;spacingLeft=4;spacingRight=4;overflow=hidden;rotatable=0;points=[[0,0.5],[1,0.5]];portConstraint=eastwest;" parent="XcSWrW2zdejVUgtWruym-43" vertex="1">
          <mxGeometry y="168" width="493" height="32" as="geometry" />
        </mxCell>
        <mxCell id="XcSWrW2zdejVUgtWruym-50" value="-createDeleteCommand(String[] args) : Command" style="text;strokeColor=none;fillColor=none;align=left;verticalAlign=top;spacingLeft=4;spacingRight=4;overflow=hidden;rotatable=0;points=[[0,0.5],[1,0.5]];portConstraint=eastwest;" parent="XcSWrW2zdejVUgtWruym-43" vertex="1">
          <mxGeometry y="200" width="493" height="32" as="geometry" />
        </mxCell>
        <mxCell id="XcSWrW2zdejVUgtWruym-51" value="-createChangeStatusCommand(String[] args) : Command" style="text;strokeColor=none;fillColor=none;align=left;verticalAlign=top;spacingLeft=4;spacingRight=4;overflow=hidden;rotatable=0;points=[[0,0.5],[1,0.5]];portConstraint=eastwest;" parent="XcSWrW2zdejVUgtWruym-43" vertex="1">
          <mxGeometry y="232" width="493" height="32" as="geometry" />
        </mxCell>
        <mxCell id="XcSWrW2zdejVUgtWruym-52" value="Main" style="swimlane;fontStyle=1;align=center;verticalAlign=top;childLayout=stackLayout;horizontal=1;startSize=36.8;horizontalStack=0;resizeParent=1;resizeParentMax=0;resizeLast=0;collapsible=0;marginBottom=0;" parent="WIyWlLk6GJQsqaUBKTNV-1" vertex="1">
          <mxGeometry x="2090" y="556" width="255" height="192.8" as="geometry" />
        </mxCell>
        <mxCell id="XcSWrW2zdejVUgtWruym-53" value="-HikariDataSource dataSource" style="text;strokeColor=none;fillColor=none;align=left;verticalAlign=top;spacingLeft=4;spacingRight=4;overflow=hidden;rotatable=0;points=[[0,0.5],[1,0.5]];portConstraint=eastwest;" parent="XcSWrW2zdejVUgtWruym-52" vertex="1">
          <mxGeometry y="36.8" width="255" height="37" as="geometry" />
        </mxCell>
        <mxCell id="XcSWrW2zdejVUgtWruym-54" style="line;strokeWidth=1;fillColor=none;align=left;verticalAlign=middle;spacingTop=-1;spacingLeft=3;spacingRight=3;rotatable=0;labelPosition=right;points=[];portConstraint=eastwest;strokeColor=inherit;" parent="XcSWrW2zdejVUgtWruym-52" vertex="1">
          <mxGeometry y="73.8" width="255" height="8" as="geometry" />
        </mxCell>
        <mxCell id="XcSWrW2zdejVUgtWruym-55" value="+main(String[] args) : void" style="text;strokeColor=none;fillColor=none;align=left;verticalAlign=top;spacingLeft=4;spacingRight=4;overflow=hidden;rotatable=0;points=[[0,0.5],[1,0.5]];portConstraint=eastwest;" parent="XcSWrW2zdejVUgtWruym-52" vertex="1">
          <mxGeometry y="81.8" width="255" height="37" as="geometry" />
        </mxCell>
        <mxCell id="XcSWrW2zdejVUgtWruym-56" value="-initializeDataSource() : void" style="text;strokeColor=none;fillColor=none;align=left;verticalAlign=top;spacingLeft=4;spacingRight=4;overflow=hidden;rotatable=0;points=[[0,0.5],[1,0.5]];portConstraint=eastwest;" parent="XcSWrW2zdejVUgtWruym-52" vertex="1">
          <mxGeometry y="118.8" width="255" height="37" as="geometry" />
        </mxCell>
        <mxCell id="XcSWrW2zdejVUgtWruym-57" value="-printUsage() : void" style="text;strokeColor=none;fillColor=none;align=left;verticalAlign=top;spacingLeft=4;spacingRight=4;overflow=hidden;rotatable=0;points=[[0,0.5],[1,0.5]];portConstraint=eastwest;" parent="XcSWrW2zdejVUgtWruym-52" vertex="1">
          <mxGeometry y="155.8" width="255" height="37" as="geometry" />
        </mxCell>
        <mxCell id="XcSWrW2zdejVUgtWruym-58" value="AddTask" style="swimlane;fontStyle=1;align=center;verticalAlign=top;childLayout=stackLayout;horizontal=1;startSize=36.8;horizontalStack=0;resizeParent=1;resizeParentMax=0;resizeLast=0;collapsible=0;marginBottom=0;" parent="WIyWlLk6GJQsqaUBKTNV-1" vertex="1">
          <mxGeometry x="2460" y="1429" width="498" height="192.8" as="geometry" />
        </mxCell>
        <mxCell id="XcSWrW2zdejVUgtWruym-59" value="-TaskDAO taskDAO" style="text;strokeColor=none;fillColor=none;align=left;verticalAlign=top;spacingLeft=4;spacingRight=4;overflow=hidden;rotatable=0;points=[[0,0.5],[1,0.5]];portConstraint=eastwest;" parent="XcSWrW2zdejVUgtWruym-58" vertex="1">
          <mxGeometry y="36.8" width="498" height="37" as="geometry" />
        </mxCell>
        <mxCell id="XcSWrW2zdejVUgtWruym-60" value="-String description" style="text;strokeColor=none;fillColor=none;align=left;verticalAlign=top;spacingLeft=4;spacingRight=4;overflow=hidden;rotatable=0;points=[[0,0.5],[1,0.5]];portConstraint=eastwest;" parent="XcSWrW2zdejVUgtWruym-58" vertex="1">
          <mxGeometry y="73.8" width="498" height="37" as="geometry" />
        </mxCell>
        <mxCell id="XcSWrW2zdejVUgtWruym-61" style="line;strokeWidth=1;fillColor=none;align=left;verticalAlign=middle;spacingTop=-1;spacingLeft=3;spacingRight=3;rotatable=0;labelPosition=right;points=[];portConstraint=eastwest;strokeColor=inherit;" parent="XcSWrW2zdejVUgtWruym-58" vertex="1">
          <mxGeometry y="110.8" width="498" height="8" as="geometry" />
        </mxCell>
        <mxCell id="XcSWrW2zdejVUgtWruym-62" value="+AddTaskCommand(TaskDAO taskDAO, String description)" style="text;strokeColor=none;fillColor=none;align=left;verticalAlign=top;spacingLeft=4;spacingRight=4;overflow=hidden;rotatable=0;points=[[0,0.5],[1,0.5]];portConstraint=eastwest;" parent="XcSWrW2zdejVUgtWruym-58" vertex="1">
          <mxGeometry y="118.8" width="498" height="37" as="geometry" />
        </mxCell>
        <mxCell id="XcSWrW2zdejVUgtWruym-63" value="+execute() : void" style="text;strokeColor=none;fillColor=none;align=left;verticalAlign=top;spacingLeft=4;spacingRight=4;overflow=hidden;rotatable=0;points=[[0,0.5],[1,0.5]];portConstraint=eastwest;" parent="XcSWrW2zdejVUgtWruym-58" vertex="1">
          <mxGeometry y="155.8" width="498" height="37" as="geometry" />
        </mxCell>
        <mxCell id="XcSWrW2zdejVUgtWruym-64" value="UpdateTask" style="swimlane;fontStyle=1;align=center;verticalAlign=top;childLayout=stackLayout;horizontal=1;startSize=34.666666666666664;horizontalStack=0;resizeParent=1;resizeParentMax=0;resizeLast=0;collapsible=0;marginBottom=0;" parent="WIyWlLk6GJQsqaUBKTNV-1" vertex="1">
          <mxGeometry x="1760" y="1416.17" width="643" height="217.66666666666666" as="geometry" />
        </mxCell>
        <mxCell id="XcSWrW2zdejVUgtWruym-65" value="-TaskDAO taskDAO" style="text;strokeColor=none;fillColor=none;align=left;verticalAlign=top;spacingLeft=4;spacingRight=4;overflow=hidden;rotatable=0;points=[[0,0.5],[1,0.5]];portConstraint=eastwest;" parent="XcSWrW2zdejVUgtWruym-64" vertex="1">
          <mxGeometry y="34.666666666666664" width="643" height="35" as="geometry" />
        </mxCell>
        <mxCell id="XcSWrW2zdejVUgtWruym-66" value="-int taskId" style="text;strokeColor=none;fillColor=none;align=left;verticalAlign=top;spacingLeft=4;spacingRight=4;overflow=hidden;rotatable=0;points=[[0,0.5],[1,0.5]];portConstraint=eastwest;" parent="XcSWrW2zdejVUgtWruym-64" vertex="1">
          <mxGeometry y="69.66666666666666" width="643" height="35" as="geometry" />
        </mxCell>
        <mxCell id="XcSWrW2zdejVUgtWruym-67" value="-String newDescription" style="text;strokeColor=none;fillColor=none;align=left;verticalAlign=top;spacingLeft=4;spacingRight=4;overflow=hidden;rotatable=0;points=[[0,0.5],[1,0.5]];portConstraint=eastwest;" parent="XcSWrW2zdejVUgtWruym-64" vertex="1">
          <mxGeometry y="104.66666666666666" width="643" height="35" as="geometry" />
        </mxCell>
        <mxCell id="XcSWrW2zdejVUgtWruym-68" style="line;strokeWidth=1;fillColor=none;align=left;verticalAlign=middle;spacingTop=-1;spacingLeft=3;spacingRight=3;rotatable=0;labelPosition=right;points=[];portConstraint=eastwest;strokeColor=inherit;" parent="XcSWrW2zdejVUgtWruym-64" vertex="1">
          <mxGeometry y="139.66666666666666" width="643" height="8" as="geometry" />
        </mxCell>
        <mxCell id="XcSWrW2zdejVUgtWruym-69" value="+updateTaskCommand(TaskDAO taskDAO, int taskId, String newDescription)" style="text;strokeColor=none;fillColor=none;align=left;verticalAlign=top;spacingLeft=4;spacingRight=4;overflow=hidden;rotatable=0;points=[[0,0.5],[1,0.5]];portConstraint=eastwest;" parent="XcSWrW2zdejVUgtWruym-64" vertex="1">
          <mxGeometry y="147.66666666666666" width="643" height="35" as="geometry" />
        </mxCell>
        <mxCell id="XcSWrW2zdejVUgtWruym-70" value="+execute() : void" style="text;strokeColor=none;fillColor=none;align=left;verticalAlign=top;spacingLeft=4;spacingRight=4;overflow=hidden;rotatable=0;points=[[0,0.5],[1,0.5]];portConstraint=eastwest;" parent="XcSWrW2zdejVUgtWruym-64" vertex="1">
          <mxGeometry y="182.66666666666666" width="643" height="35" as="geometry" />
        </mxCell>
        <mxCell id="XcSWrW2zdejVUgtWruym-71" value="DeleteTask" style="swimlane;fontStyle=1;align=center;verticalAlign=top;childLayout=stackLayout;horizontal=1;startSize=36.8;horizontalStack=0;resizeParent=1;resizeParentMax=0;resizeLast=0;collapsible=0;marginBottom=0;" parent="WIyWlLk6GJQsqaUBKTNV-1" vertex="1">
          <mxGeometry x="1248" y="1429" width="469" height="192.8" as="geometry" />
        </mxCell>
        <mxCell id="XcSWrW2zdejVUgtWruym-72" value="-TaskDAO taskDAO" style="text;strokeColor=none;fillColor=none;align=left;verticalAlign=top;spacingLeft=4;spacingRight=4;overflow=hidden;rotatable=0;points=[[0,0.5],[1,0.5]];portConstraint=eastwest;" parent="XcSWrW2zdejVUgtWruym-71" vertex="1">
          <mxGeometry y="36.8" width="469" height="37" as="geometry" />
        </mxCell>
        <mxCell id="XcSWrW2zdejVUgtWruym-73" value="-int taskId" style="text;strokeColor=none;fillColor=none;align=left;verticalAlign=top;spacingLeft=4;spacingRight=4;overflow=hidden;rotatable=0;points=[[0,0.5],[1,0.5]];portConstraint=eastwest;" parent="XcSWrW2zdejVUgtWruym-71" vertex="1">
          <mxGeometry y="73.8" width="469" height="37" as="geometry" />
        </mxCell>
        <mxCell id="XcSWrW2zdejVUgtWruym-74" style="line;strokeWidth=1;fillColor=none;align=left;verticalAlign=middle;spacingTop=-1;spacingLeft=3;spacingRight=3;rotatable=0;labelPosition=right;points=[];portConstraint=eastwest;strokeColor=inherit;" parent="XcSWrW2zdejVUgtWruym-71" vertex="1">
          <mxGeometry y="110.8" width="469" height="8" as="geometry" />
        </mxCell>
        <mxCell id="XcSWrW2zdejVUgtWruym-75" value="+deleteTaskCommand(TaskDAO taskDAO, int taskId)" style="text;strokeColor=none;fillColor=none;align=left;verticalAlign=top;spacingLeft=4;spacingRight=4;overflow=hidden;rotatable=0;points=[[0,0.5],[1,0.5]];portConstraint=eastwest;" parent="XcSWrW2zdejVUgtWruym-71" vertex="1">
          <mxGeometry y="118.8" width="469" height="37" as="geometry" />
        </mxCell>
        <mxCell id="XcSWrW2zdejVUgtWruym-76" value="+execute() : void" style="text;strokeColor=none;fillColor=none;align=left;verticalAlign=top;spacingLeft=4;spacingRight=4;overflow=hidden;rotatable=0;points=[[0,0.5],[1,0.5]];portConstraint=eastwest;" parent="XcSWrW2zdejVUgtWruym-71" vertex="1">
          <mxGeometry y="155.8" width="469" height="37" as="geometry" />
        </mxCell>
        <mxCell id="XcSWrW2zdejVUgtWruym-77" value="ListTasks" style="swimlane;fontStyle=1;align=center;verticalAlign=top;childLayout=stackLayout;horizontal=1;startSize=40;horizontalStack=0;resizeParent=1;resizeParentMax=0;resizeLast=0;collapsible=0;marginBottom=0;" parent="WIyWlLk6GJQsqaUBKTNV-1" vertex="1">
          <mxGeometry x="830" y="1441" width="368" height="168" as="geometry" />
        </mxCell>
        <mxCell id="XcSWrW2zdejVUgtWruym-78" value="-TaskDAO taskDAO" style="text;strokeColor=none;fillColor=none;align=left;verticalAlign=top;spacingLeft=4;spacingRight=4;overflow=hidden;rotatable=0;points=[[0,0.5],[1,0.5]];portConstraint=eastwest;" parent="XcSWrW2zdejVUgtWruym-77" vertex="1">
          <mxGeometry y="40" width="368" height="40" as="geometry" />
        </mxCell>
        <mxCell id="XcSWrW2zdejVUgtWruym-79" style="line;strokeWidth=1;fillColor=none;align=left;verticalAlign=middle;spacingTop=-1;spacingLeft=3;spacingRight=3;rotatable=0;labelPosition=right;points=[];portConstraint=eastwest;strokeColor=inherit;" parent="XcSWrW2zdejVUgtWruym-77" vertex="1">
          <mxGeometry y="80" width="368" height="8" as="geometry" />
        </mxCell>
        <mxCell id="XcSWrW2zdejVUgtWruym-80" value="+listTasksCommand(TaskDAO taskDAO)" style="text;strokeColor=none;fillColor=none;align=left;verticalAlign=top;spacingLeft=4;spacingRight=4;overflow=hidden;rotatable=0;points=[[0,0.5],[1,0.5]];portConstraint=eastwest;" parent="XcSWrW2zdejVUgtWruym-77" vertex="1">
          <mxGeometry y="88" width="368" height="40" as="geometry" />
        </mxCell>
        <mxCell id="XcSWrW2zdejVUgtWruym-81" value="+execute() : void" style="text;strokeColor=none;fillColor=none;align=left;verticalAlign=top;spacingLeft=4;spacingRight=4;overflow=hidden;rotatable=0;points=[[0,0.5],[1,0.5]];portConstraint=eastwest;" parent="XcSWrW2zdejVUgtWruym-77" vertex="1">
          <mxGeometry y="128" width="368" height="40" as="geometry" />
        </mxCell>
        <mxCell id="XcSWrW2zdejVUgtWruym-82" value="ChangeStatus" style="swimlane;fontStyle=1;align=center;verticalAlign=top;childLayout=stackLayout;horizontal=1;startSize=34.666666666666664;horizontalStack=0;resizeParent=1;resizeParentMax=0;resizeLast=0;collapsible=0;marginBottom=0;" parent="WIyWlLk6GJQsqaUBKTNV-1" vertex="1">
          <mxGeometry x="10" y="1530" width="660" height="217.66666666666666" as="geometry" />
        </mxCell>
        <mxCell id="XcSWrW2zdejVUgtWruym-83" value="-TaskDAO taskDAO" style="text;strokeColor=none;fillColor=none;align=left;verticalAlign=top;spacingLeft=4;spacingRight=4;overflow=hidden;rotatable=0;points=[[0,0.5],[1,0.5]];portConstraint=eastwest;" parent="XcSWrW2zdejVUgtWruym-82" vertex="1">
          <mxGeometry y="34.666666666666664" width="660" height="35" as="geometry" />
        </mxCell>
        <mxCell id="XcSWrW2zdejVUgtWruym-84" value="-int taskId" style="text;strokeColor=none;fillColor=none;align=left;verticalAlign=top;spacingLeft=4;spacingRight=4;overflow=hidden;rotatable=0;points=[[0,0.5],[1,0.5]];portConstraint=eastwest;" parent="XcSWrW2zdejVUgtWruym-82" vertex="1">
          <mxGeometry y="69.66666666666666" width="660" height="35" as="geometry" />
        </mxCell>
        <mxCell id="XcSWrW2zdejVUgtWruym-85" value="-TaskStatus newStatus" style="text;strokeColor=none;fillColor=none;align=left;verticalAlign=top;spacingLeft=4;spacingRight=4;overflow=hidden;rotatable=0;points=[[0,0.5],[1,0.5]];portConstraint=eastwest;" parent="XcSWrW2zdejVUgtWruym-82" vertex="1">
          <mxGeometry y="104.66666666666666" width="660" height="35" as="geometry" />
        </mxCell>
        <mxCell id="XcSWrW2zdejVUgtWruym-86" style="line;strokeWidth=1;fillColor=none;align=left;verticalAlign=middle;spacingTop=-1;spacingLeft=3;spacingRight=3;rotatable=0;labelPosition=right;points=[];portConstraint=eastwest;strokeColor=inherit;" parent="XcSWrW2zdejVUgtWruym-82" vertex="1">
          <mxGeometry y="139.66666666666666" width="660" height="8" as="geometry" />
        </mxCell>
        <mxCell id="XcSWrW2zdejVUgtWruym-87" value="+ChangeStatus(TaskDAO taskDAO, int taskId, TaskStatus newStatus)" style="text;strokeColor=none;fillColor=none;align=left;verticalAlign=top;spacingLeft=4;spacingRight=4;overflow=hidden;rotatable=0;points=[[0,0.5],[1,0.5]];portConstraint=eastwest;" parent="XcSWrW2zdejVUgtWruym-82" vertex="1">
          <mxGeometry y="147.66666666666666" width="660" height="35" as="geometry" />
        </mxCell>
        <mxCell id="XcSWrW2zdejVUgtWruym-88" value="+execute() : void" style="text;strokeColor=none;fillColor=none;align=left;verticalAlign=top;spacingLeft=4;spacingRight=4;overflow=hidden;rotatable=0;points=[[0,0.5],[1,0.5]];portConstraint=eastwest;" parent="XcSWrW2zdejVUgtWruym-82" vertex="1">
          <mxGeometry y="182.66666666666666" width="660" height="35" as="geometry" />
        </mxCell>
        <mxCell id="XcSWrW2zdejVUgtWruym-89" value="implements" style="curved=1;startArrow=block;startSize=16;startFill=0;endArrow=none;exitX=1;exitY=0.58;entryX=0.5;entryY=0;rounded=0;" parent="WIyWlLk6GJQsqaUBKTNV-1" source="XcSWrW2zdejVUgtWruym-0" target="XcSWrW2zdejVUgtWruym-58" edge="1">
          <mxGeometry y="-4" relative="1" as="geometry">
            <Array as="points">
              <mxPoint x="2709" y="1381" />
            </Array>
            <mxPoint as="offset" />
          </mxGeometry>
        </mxCell>
        <mxCell id="XcSWrW2zdejVUgtWruym-90" value="implements" style="curved=1;startArrow=block;startSize=16;startFill=0;endArrow=none;exitX=1;exitY=0.67;entryX=0.5;entryY=0;rounded=0;" parent="WIyWlLk6GJQsqaUBKTNV-1" source="XcSWrW2zdejVUgtWruym-0" target="XcSWrW2zdejVUgtWruym-64" edge="1">
          <mxGeometry relative="1" as="geometry">
            <Array as="points">
              <mxPoint x="2088" y="1381" />
            </Array>
          </mxGeometry>
        </mxCell>
        <mxCell id="XcSWrW2zdejVUgtWruym-91" value="implements" style="curved=1;startArrow=block;startSize=16;startFill=0;endArrow=none;exitX=0.55;exitY=1;entryX=0.5;entryY=0;rounded=0;" parent="WIyWlLk6GJQsqaUBKTNV-1" source="XcSWrW2zdejVUgtWruym-0" target="XcSWrW2zdejVUgtWruym-71" edge="1">
          <mxGeometry relative="1" as="geometry">
            <Array as="points">
              <mxPoint x="1482" y="1381" />
            </Array>
          </mxGeometry>
        </mxCell>
        <mxCell id="XcSWrW2zdejVUgtWruym-92" value="implements" style="curved=1;startArrow=block;startSize=16;startFill=0;endArrow=none;exitX=0;exitY=0.73;entryX=0.5;entryY=0;rounded=0;" parent="WIyWlLk6GJQsqaUBKTNV-1" source="XcSWrW2zdejVUgtWruym-0" target="XcSWrW2zdejVUgtWruym-77" edge="1">
          <mxGeometry x="0.0085" y="8" relative="1" as="geometry">
            <Array as="points">
              <mxPoint x="1014" y="1381" />
            </Array>
            <mxPoint y="-1" as="offset" />
          </mxGeometry>
        </mxCell>
        <mxCell id="XcSWrW2zdejVUgtWruym-93" value="implements" style="curved=1;startArrow=block;startSize=16;startFill=0;endArrow=none;exitX=0;exitY=0.6;entryX=0.5;entryY=0;rounded=0;" parent="WIyWlLk6GJQsqaUBKTNV-1" source="XcSWrW2zdejVUgtWruym-0" target="XcSWrW2zdejVUgtWruym-82" edge="1">
          <mxGeometry x="-0.0265" y="15" relative="1" as="geometry">
            <Array as="points">
              <mxPoint x="450" y="1381" />
            </Array>
            <mxPoint as="offset" />
          </mxGeometry>
        </mxCell>
        <mxCell id="XcSWrW2zdejVUgtWruym-94" value="creates" style="curved=1;dashed=1;startArrow=none;endArrow=open;endSize=12;exitX=0;exitY=0;entryX=1;entryY=0.42;rounded=0;exitDx=0;exitDy=0;" parent="WIyWlLk6GJQsqaUBKTNV-1" source="XcSWrW2zdejVUgtWruym-43" target="XcSWrW2zdejVUgtWruym-0" edge="1">
          <mxGeometry x="-0.0001" y="18" relative="1" as="geometry">
            <Array as="points">
              <mxPoint x="2210" y="970" />
            </Array>
            <mxPoint as="offset" />
          </mxGeometry>
        </mxCell>
        <mxCell id="XcSWrW2zdejVUgtWruym-95" value="uses" style="curved=1;startArrow=none;endArrow=open;endSize=12;exitX=0.5;exitY=1;rounded=0;entryX=0.436;entryY=0;entryDx=0;entryDy=0;entryPerimeter=0;" parent="WIyWlLk6GJQsqaUBKTNV-1" source="XcSWrW2zdejVUgtWruym-43" target="XcSWrW2zdejVUgtWruym-34" edge="1">
          <mxGeometry x="0.3209" y="-98" relative="1" as="geometry">
            <Array as="points">
              <mxPoint x="3290" y="1670" />
            </Array>
            <mxPoint x="2630" y="2190" as="targetPoint" />
            <mxPoint as="offset" />
          </mxGeometry>
        </mxCell>
        <mxCell id="XcSWrW2zdejVUgtWruym-96" value="uses" style="curved=1;startArrow=none;endArrow=open;endSize=12;exitX=0.66;exitY=1;entryX=0.46;entryY=0;rounded=0;" parent="WIyWlLk6GJQsqaUBKTNV-1" source="XcSWrW2zdejVUgtWruym-58" target="XcSWrW2zdejVUgtWruym-34" edge="1">
          <mxGeometry relative="1" as="geometry">
            <Array as="points">
              <mxPoint x="2832" y="1670" />
            </Array>
          </mxGeometry>
        </mxCell>
        <mxCell id="XcSWrW2zdejVUgtWruym-97" value="uses" style="curved=1;startArrow=none;endArrow=open;endSize=12;exitX=0.97;exitY=1;rounded=0;" parent="WIyWlLk6GJQsqaUBKTNV-1" source="XcSWrW2zdejVUgtWruym-64" edge="1">
          <mxGeometry x="-0.0148" y="-16" relative="1" as="geometry">
            <Array as="points">
              <mxPoint x="2494" y="1670" />
            </Array>
            <mxPoint x="2630" y="2183" as="targetPoint" />
            <mxPoint as="offset" />
          </mxGeometry>
        </mxCell>
        <mxCell id="XcSWrW2zdejVUgtWruym-98" value="uses" style="curved=1;startArrow=none;endArrow=open;endSize=12;entryX=0;entryY=0;rounded=0;entryDx=0;entryDy=0;" parent="WIyWlLk6GJQsqaUBKTNV-1" source="XcSWrW2zdejVUgtWruym-76" target="XcSWrW2zdejVUgtWruym-34" edge="1">
          <mxGeometry x="-0.0047" y="-86" relative="1" as="geometry">
            <Array as="points">
              <mxPoint x="2180" y="1760" />
            </Array>
            <mxPoint as="offset" />
          </mxGeometry>
        </mxCell>
        <mxCell id="XcSWrW2zdejVUgtWruym-99" value="uses" style="curved=1;startArrow=none;endArrow=open;endSize=12;exitX=0.507;exitY=0.985;entryX=0;entryY=0.31;rounded=0;exitDx=0;exitDy=0;exitPerimeter=0;" parent="WIyWlLk6GJQsqaUBKTNV-1" source="XcSWrW2zdejVUgtWruym-81" target="XcSWrW2zdejVUgtWruym-34" edge="1">
          <mxGeometry x="0.0023" y="-39" relative="1" as="geometry">
            <Array as="points">
              <mxPoint x="1210" y="1670" />
              <mxPoint x="1790" y="1800" />
            </Array>
            <mxPoint as="offset" />
          </mxGeometry>
        </mxCell>
        <mxCell id="XcSWrW2zdejVUgtWruym-100" value="uses" style="curved=1;startArrow=none;endArrow=open;endSize=12;exitX=1;exitY=0.69;entryX=0;entryY=0.36;rounded=0;" parent="WIyWlLk6GJQsqaUBKTNV-1" source="XcSWrW2zdejVUgtWruym-82" target="XcSWrW2zdejVUgtWruym-34" edge="1">
          <mxGeometry x="0.0867" y="-110" relative="1" as="geometry">
            <Array as="points">
              <mxPoint x="1593" y="1670" />
            </Array>
            <mxPoint as="offset" />
          </mxGeometry>
        </mxCell>
        <mxCell id="XcSWrW2zdejVUgtWruym-101" value="creates" style="curved=1;dashed=1;startArrow=none;endArrow=open;endSize=12;exitX=0;exitY=0.66;entryX=1;entryY=0.4;rounded=0;" parent="WIyWlLk6GJQsqaUBKTNV-1" source="XcSWrW2zdejVUgtWruym-58" target="XcSWrW2zdejVUgtWruym-16" edge="1">
          <mxGeometry x="-0.0296" y="-99" relative="1" as="geometry">
            <Array as="points">
              <mxPoint x="2270" y="2090" />
            </Array>
            <mxPoint x="-1" as="offset" />
          </mxGeometry>
        </mxCell>
        <mxCell id="XcSWrW2zdejVUgtWruym-102" value="updates" style="curved=1;dashed=1;startArrow=none;endArrow=open;endSize=12;exitX=0.369;exitY=1.038;entryX=1;entryY=0.36;rounded=0;exitDx=0;exitDy=0;exitPerimeter=0;" parent="WIyWlLk6GJQsqaUBKTNV-1" source="XcSWrW2zdejVUgtWruym-70" target="XcSWrW2zdejVUgtWruym-16" edge="1">
          <mxGeometry x="-0.2678" y="-39" relative="1" as="geometry">
            <Array as="points">
              <mxPoint x="2040" y="1950" />
            </Array>
            <mxPoint as="offset" />
          </mxGeometry>
        </mxCell>
        <mxCell id="XcSWrW2zdejVUgtWruym-103" value="deletes" style="curved=1;dashed=1;startArrow=none;endArrow=open;endSize=12;exitX=0.471;exitY=0.998;rounded=0;exitDx=0;exitDy=0;exitPerimeter=0;" parent="WIyWlLk6GJQsqaUBKTNV-1" source="XcSWrW2zdejVUgtWruym-76" edge="1">
          <mxGeometry x="-0.2858" y="4" relative="1" as="geometry">
            <Array as="points">
              <mxPoint x="1530" y="1870" />
            </Array>
            <mxPoint x="1635" y="2010" as="targetPoint" />
            <mxPoint as="offset" />
          </mxGeometry>
        </mxCell>
        <mxCell id="XcSWrW2zdejVUgtWruym-104" value="lists" style="curved=1;dashed=1;startArrow=none;endArrow=open;endSize=12;exitX=0.495;exitY=0.975;entryX=0.5;entryY=0;rounded=0;exitDx=0;exitDy=0;exitPerimeter=0;entryDx=0;entryDy=0;" parent="WIyWlLk6GJQsqaUBKTNV-1" source="XcSWrW2zdejVUgtWruym-81" target="XcSWrW2zdejVUgtWruym-16" edge="1">
          <mxGeometry x="0.0462" y="22" relative="1" as="geometry">
            <Array as="points">
              <mxPoint x="1290" y="1850" />
            </Array>
            <mxPoint as="offset" />
          </mxGeometry>
        </mxCell>
        <mxCell id="XcSWrW2zdejVUgtWruym-105" value="updates status" style="curved=1;dashed=1;startArrow=none;endArrow=open;endSize=12;exitX=0.8;exitY=0.981;rounded=0;exitDx=0;exitDy=0;exitPerimeter=0;" parent="WIyWlLk6GJQsqaUBKTNV-1" source="XcSWrW2zdejVUgtWruym-88" target="XcSWrW2zdejVUgtWruym-16" edge="1">
          <mxGeometry x="-0.0069" y="11" relative="1" as="geometry">
            <Array as="points">
              <mxPoint x="660" y="1870" />
            </Array>
            <mxPoint as="offset" />
          </mxGeometry>
        </mxCell>
        <mxCell id="XcSWrW2zdejVUgtWruym-106" value="has" style="curved=1;startArrow=diamondThin;startSize=14;startFill=0;endArrow=none;exitX=0.5;exitY=1;entryX=0.5;entryY=0;rounded=0;" parent="WIyWlLk6GJQsqaUBKTNV-1" source="XcSWrW2zdejVUgtWruym-16" target="XcSWrW2zdejVUgtWruym-11" edge="1">
          <mxGeometry relative="1" as="geometry">
            <Array as="points" />
          </mxGeometry>
        </mxCell>
        <mxCell id="XcSWrW2zdejVUgtWruym-107" value="creates" style="curved=1;startArrow=none;endArrow=open;endSize=12;exitX=1;exitY=0.64;entryX=0.5;entryY=0;rounded=0;" parent="WIyWlLk6GJQsqaUBKTNV-1" source="XcSWrW2zdejVUgtWruym-52" target="XcSWrW2zdejVUgtWruym-43" edge="1">
          <mxGeometry x="-0.0876" y="-6" relative="1" as="geometry">
            <Array as="points">
              <mxPoint x="2840" y="800" />
            </Array>
            <mxPoint as="offset" />
          </mxGeometry>
        </mxCell>
        <mxCell id="XcSWrW2zdejVUgtWruym-108" value="executes" style="curved=1;startArrow=none;endArrow=open;endSize=12;exitX=0;exitY=0.64;entryX=0.44;entryY=0;rounded=0;" parent="WIyWlLk6GJQsqaUBKTNV-1" source="XcSWrW2zdejVUgtWruym-52" target="XcSWrW2zdejVUgtWruym-0" edge="1">
          <mxGeometry x="0.0114" y="46" relative="1" as="geometry">
            <Array as="points">
              <mxPoint x="1540" y="830" />
              <mxPoint x="1446" y="1160" />
            </Array>
            <mxPoint as="offset" />
          </mxGeometry>
        </mxCell>
      </root>
    </mxGraphModel>
  </diagram>
</mxfile>
